Coordinates
version=1
nRows=9
nColumns=24
inDegrees=yes

Units are S.I. units (second, meters, Newtons, ...)
Angles are in degrees.

endheader
time	pelvis_tilt	pelvis_list	pelvis_rotation	pelvis_tx	pelvis_ty	pelvis_tz	hip_flexion_r	hip_adduction_r	hip_rotation_r	knee_angle_r	ankle_angle_r	subtalar_angle_r	mtp_angle_r	hip_flexion_l	hip_adduction_l	hip_rotation_l	knee_angle_l	ankle_angle_l	subtalar_angle_l	mtp_angle_l	lumbar_extension	lumbar_bending	lumbar_rotation
      2.37000000	     21.77930277	     -3.44683563	     -4.10921608	     -0.07752674	      0.97506079	     -0.00527471	     -0.42533029	     -1.11556675	    -13.03745193	    -30.39939607	     11.52154635	     -2.58577501	     33.76878313	    -35.20389629	      3.76203150	    -14.36666838	      3.19227454	     11.40847880	     12.15500127	     12.05995665	    -28.90475340	      0.84898501	      3.58902456
      2.37500000	     21.99921468	     -3.69308822	     -3.73654761	     -0.07164320	      0.97489757	     -0.00536009	     -0.86792488	     -0.65755754	    -13.74862806	    -27.99082372	     11.24995162	     -2.11001819	     33.83915247	    -35.93055639	      3.39168945	    -14.52784279	      3.36914155	     11.55189308	     12.59945627	     12.11297954	    -29.15547091	      1.24528700	      3.34107117
      2.38000000	     22.22863269	     -3.91844425	     -3.37031616	     -0.06572450	      0.97468352	     -0.00541702	     -1.33866846	     -0.20714034	    -14.46688048	    -25.56230981	     10.92411919	     -1.53930986	     33.93924705	    -36.65584941	      3.03934185	    -14.70543778	      3.52446711	     11.69696806	     13.05241300	     12.17062788	    -29.40765194	      1.61907876	      3.08796957
      2.38500000	     22.45804718	     -4.12736471	     -3.01615128	     -0.05976453	      0.97440689	     -0.00540674	     -1.82096599	      0.24341513	    -15.18811853	    -23.13253338	     10.54104020	     -0.86130717	     34.07080193	    -37.37319043	      2.70134071	    -14.90042811	      3.66425816	     11.83918177	     13.50542288	     12.23255786	    -29.65230824	      1.96696394	      2.83489164
      2.39000000	     22.68094599	     -4.31645626	     -2.67570719	     -0.05377379	      0.97406482	     -0.00533220	     -2.30148095	      0.68956098	    -15.90935858	    -20.71755492	     10.09482647	     -0.07583902	     34.23226836	    -38.07392302	      2.38049943	    -15.10151071	      3.78582653	     11.98394003	     13.95116597	     12.30152526	    -29.88227162	      2.28573124	      2.59025559
      2.39500000	     22.89140456	     -4.48706076	     -2.34909185	     -0.04774005	      0.97365183	     -0.00520614	     -2.77225264	      1.13209081	    -16.62584636	    -18.33003142	      9.59729911	      0.81407698	     34.39693502	    -38.75374323	      2.07725335	    -15.29942429	      3.89056913	     12.13546736	     14.35748203	     12.37489135	    -30.08936215	      2.58087836	      2.35154003
      2.40000000	     23.09249061	     -4.62553263	     -2.04765515	     -0.04172152	      0.97317388	     -0.00498662	     -3.22488705	      1.55688276	    -17.30950127	    -15.99231385	      9.04309193	      1.78553532	     34.57869752	    -39.40727184	      1.80504231	    -15.49380398	      3.96883191	     12.28119401	     14.76387938	     12.45683535	    -30.28718536	      2.82592090	      2.11780415
      2.40500000	     23.28665531	     -4.74461126	     -1.76691083	     -0.03568093	      0.97263060	     -0.00470334	     -3.66648825	      1.97449848	    -17.96351034	    -13.71256056	      8.44133984	      2.83337457	     34.76423645	    -40.04463626	      1.55402602	    -15.68246638	      4.02622064	     12.42515865	     15.14911304	     12.54692797	    -30.47114287	      3.04156241	      1.90091032
      2.41000000	     23.45146217	     -4.83809985	     -1.51853823	     -0.02964800	      0.97199970	     -0.00432207	     -4.06021788	      2.37589592	    -18.56455819	    -11.52359104	      7.79624357	      3.94039140	     34.93928996	    -40.63996568	      1.33420843	    -15.86440586	      4.06456568	     12.57576614	     15.49371290	     12.64646988	    -30.62377959	      3.21370905	      1.69276756
